<svg xmlns="http://www.w3.org/2000/svg" version="1.1" viewBox="-5.0 -10.0 110.0 135.0">
 <path d="m56.766 20.25c7.8438 0 15.043 2.7617 20.676 7.3633 4.2891-1.0156 8.0625-1.4219 11.062-1.1602 3.5586 0.3125 6.168 1.5742 7.4922 3.8711 2.3477 4.0664-0.30469 10.242-6.4844 16.934l-0.44531 0.47656c0.27344 1.7031 0.41797 3.4531 0.41797 5.2344 0 9.0312-3.6641 17.219-9.582 23.137-5.9219 5.9219-14.102 9.582-23.137 9.582-7.8438 0-15.047-2.7617-20.684-7.3633l-0.64453 0.14844c-8.8906 2.0078-15.562 1.2148-17.906-2.8516l-0.074219-0.14062c-1.2383-2.2695-1.0117-5.1094 0.46875-8.2812 1.2656-2.7227 3.5078-5.7852 6.5352-8.9961-0.27344-1.7031-0.41797-3.4531-0.41797-5.2344 0-9.0352 3.6641-17.219 9.582-23.137 5.9219-5.9219 14.102-9.582 23.137-9.582zm5.1836 4.4688c-1.6836-0.30469-3.4141-0.46875-5.1836-0.46875-7.9297 0-15.109 3.2148-20.309 8.4102-5.1953 5.1953-8.4102 12.379-8.4102 20.309s3.2148 15.109 8.4102 20.309l0.68359 0.66406c7.3398-1.9961 16.188-5.75 25.238-10.961l0.12891-0.070313c3.8711-2.2344 7.4961-4.5742 10.805-6.9375-0.91016-1.7656-1.3516-3.7188-1.5273-5.4609-0.17969-1.7891-0.085937-3.293 0-4.6602 0.070313-1.1445 0.13672-2.1836-0.007812-3.0508-0.13281-0.79688-0.46484-1.5664-0.98828-2.2891-0.5625-0.76953-1.3438-1.5-2.3438-2.1602-0.62891-0.41797-1.3789-0.83203-2.1172-1.2383-2.2305-1.2344-4.4727-2.4727-5.4258-4.6289-1.0391-2.3594-0.19922-5.0234 1.0469-7.7578zm19.02 6.2344c3.125 3.4336 5.5312 7.5391 6.9766 12.07 4.0156-4.6875 5.8398-8.5703 4.5977-10.715-0.61328-1.0664-2.1523-1.6797-4.3828-1.875-1.9844-0.17578-4.418 0.007812-7.1953 0.51562zm-3.8945 42.332c3.2656-3.2656 5.75-7.3164 7.1445-11.844-0.53125 0.011719-1.0508 0.007813-1.5547-0.011718-1.4531-0.058594-2.7852-0.26563-3.9453-0.66406-1.1523-0.39453-2.1289-0.96484-2.9492-1.6602-3.4336 2.4648-7.1992 4.8984-11.219 7.2227l-0.1875 0.10938c-8.2305 4.7383-16.336 8.3203-23.383 10.531 4.5312 2.9844 9.957 4.7227 15.785 4.7227 7.9336 0 15.109-3.2148 20.309-8.4102zm-44.504 1.7188c-3.1289-3.4336-5.5391-7.543-6.9844-12.078-1.8281 2.1484-3.1953 4.1641-4.0391 5.9688-0.92578 1.9844-1.168 3.5898-0.58594 4.6992 1.2617 2.1836 5.5391 2.5469 11.605 1.4102zm13.164-39.961c1.4219 0.019531 2.8008 0.34375 4.1289 0.95703 1.2734 0.59375 2.5039 1.4609 3.668 2.6055 1.1016 1.0781 2.1602 2.4375 3.1094 3.9531 0.94141 1.5 1.7734 3.1562 2.4258 4.8438 0.71875 1.8594 1.2422 3.7969 1.3867 5.6406 0.13672 1.7344-0.058594 3.4023-0.71094 4.8828-0.6875 1.5586-1.8711 2.8555-3.1719 3.7422-1.4883 1.0156-3.2148 1.5312-4.6445 1.3398-1.7383-0.22656-2.6953-1.2227-3.7305-2.3008-0.48828-0.51172-1.0117-1.0547-1.5547-1.3516-0.62109-0.33984-1.5781-0.55859-2.5273-0.77344-1.5117-0.34375-3.0195-0.69141-4.2617-1.6211-1.2266-0.92578-1.9453-2.2422-2.3711-3.8203-0.35547-1.3242-0.49609-2.8359-0.58594-4.4492-0.085937-1.5586-0.11328-3.2383 0.03125-4.8516 0.16016-1.7383 0.53125-3.3945 1.2656-4.7344l0.066406-0.10938c0.75781-1.3281 1.832-2.2969 3.0586-2.9453 1.3516-0.71094 2.9023-1.0273 4.418-1.0039zm-30.746-20.73c3.2617 0 6.2188 1.3242 8.3594 3.4688 2.1523 2.1523 3.4727 5.1094 3.4727 8.3711 0 3.2656-1.3242 6.2266-3.4688 8.3711-2.1406 2.1406-5.1016 3.4688-8.3711 3.4688-3.2578 0-6.2148-1.3242-8.3672-3.4727-2.1445-2.1523-3.4688-5.1094-3.4688-8.3633 0-3.2656 1.3242-6.2266 3.4688-8.3711 2.1406-2.1406 5.1016-3.4688 8.3711-3.4688zm5.5469 6.293c-1.4141-1.4141-3.3789-2.293-5.5469-2.293-2.1641 0-4.125 0.87891-5.543 2.2969-0.31641 0.31641-0.60156 0.65625-0.85937 1.0234 0.9375 0.49609 1.8242 1.082 2.6445 1.7656 1.3711 1.1406 2.5703 2.543 3.5117 4.1719 0.75781 1.3008 1.3008 2.6875 1.6445 4.1172 0.16797 0.69922 0.28516 1.4023 0.35547 2.1094 1.4609-0.33203 2.7695-1.0781 3.7969-2.1016 1.4141-1.4141 2.2969-3.3789 2.2969-5.543 0-2.168-0.875-4.1289-2.293-5.5469z"/>
<text x="0.0" y="117.5" font-size="5.0" font-weight="bold" font-family="Arbeit Regular, Helvetica, Arial-Unicode, Arial, Sans-serif" fill="#000000">Created by marwati</text><text x="0.0" y="122.5" font-size="5.0" font-weight="bold" font-family="Arbeit Regular, Helvetica, Arial-Unicode, Arial, Sans-serif" fill="#000000">from Noun Project</text></svg>