<svg xmlns="http://www.w3.org/2000/svg" version="1.1" viewBox="-5.0 -10.0 110.0 135.0">
 <path d="m65.797 34.094c-4.3438-3.7344-9.8438-5.7969-15.562-5.7969-11.891 0-21.938 8.75-23.656 20.422-7.0156 5.75-10.469 11.734-9 15.703 1.4062 3.7656 7.3125 6 15.641 6 0.46875 0 0.9375-0.015625 1.4219-0.03125 4.3438 3.7344 9.8438 5.7969 15.578 5.7969 11.891 0 21.922-8.7344 23.656-20.422 7.0312-5.75 10.469-11.734 9-15.688-1.4688-3.9688-8-6.2344-17.078-5.9844zm-15.562-2.6719c5.1719 0 10.125 1.9219 13.969 5.4062 4.3438 3.9375 6.8438 9.5625 6.8438 15.422 0 0.57812-0.03125 1.125-0.078125 1.6562 0 0.0625 0 0.14062-0.015625 0.20312l-0.42188 0.32812c-0.21875 0.17188-0.45312 0.34375-0.6875 0.51562-0.25 0.1875-0.51562 0.375-0.79688 0.5625-0.26562 0.1875-0.53125 0.375-0.8125 0.5625s-0.59375 0.39062-0.89062 0.59375-0.59375 0.39062-0.90625 0.59375c-0.32812 0.20312-0.67188 0.40625-1.0156 0.625-0.32812 0.20312-0.65625 0.39062-1 0.59375-0.35938 0.21875-0.76562 0.42188-1.1406 0.64062-0.35938 0.20312-0.70312 0.39062-1.0625 0.59375-0.42188 0.21875-0.89062 0.45312-1.3281 0.67188-0.35938 0.1875-0.71875 0.35938-1.0938 0.54688-0.53125 0.25-1.0781 0.5-1.6406 0.73438-0.32812 0.15625-0.65625 0.29688-1 0.45312-0.90625 0.39062-1.8594 0.76562-2.8438 1.125-0.78125 0.29688-1.5781 0.5625-2.3594 0.82812-0.3125 0.10938-0.625 0.1875-0.9375 0.29688-0.48438 0.15625-0.96875 0.3125-1.4531 0.45312-0.35938 0.10938-0.71875 0.1875-1.0781 0.29688-0.4375 0.125-0.875 0.25-1.3125 0.35938-0.375 0.09375-0.73438 0.17188-1.1094 0.26562-0.42188 0.09375-0.84375 0.20312-1.2656 0.29688-0.375 0.078125-0.75 0.14062-1.125 0.21875-0.42188 0.078125-0.82812 0.15625-1.25 0.23438-0.375 0.0625-0.76562 0.125-1.1406 0.17188-0.40625 0.0625-0.8125 0.125-1.2188 0.17188-0.375 0.046875-0.75 0.09375-1.1406 0.125-0.39062 0.046875-0.79688 0.09375-1.1875 0.125-0.375 0.03125-0.76562 0.0625-1.1406 0.078125-0.28125 0.015625-0.54688 0.03125-0.82812 0.046875-0.20312-0.1875-0.39062-0.39062-0.57812-0.57812-0.23438-0.25-0.46875-0.48438-0.6875-0.73438-0.25-0.28125-0.48438-0.59375-0.71875-0.89062-0.20312-0.26562-0.40625-0.51562-0.59375-0.78125-0.21875-0.3125-0.42188-0.64062-0.625-0.96875-0.17188-0.28125-0.34375-0.54688-0.51562-0.82812-0.1875-0.34375-0.35938-0.6875-0.53125-1.0469-0.14062-0.28125-0.28125-0.5625-0.42188-0.85938-0.15625-0.35938-0.29688-0.75-0.42188-1.125-0.10938-0.28125-0.21875-0.5625-0.3125-0.85938-0.125-0.40625-0.21875-0.8125-0.32812-1.2188-0.0625-0.28125-0.15625-0.54688-0.21875-0.82812-0.09375-0.45312-0.15625-0.92188-0.21875-1.3906-0.03125-0.23438-0.078125-0.46875-0.10938-0.70312-0.078125-0.70312-0.10938-1.4219-0.10938-2.1406 0-0.90625 0.046875-1.7188 0.15625-2.5156 1.25-10.438 10.125-18.312 20.656-18.312zm-29.719 31.922c-0.6875-1.8438 0.92188-5.6719 5.7969-10.25 0 0.42188 0.0625 0.84375 0.09375 1.25 0.015625 0.17188 0.015625 0.35938 0.046875 0.53125 0.078125 0.75 0.20312 1.4844 0.35938 2.2188 0.03125 0.1875 0.09375 0.35938 0.125 0.54688 0.125 0.5625 0.28125 1.1094 0.4375 1.6562l0.23438 0.70312c0.17188 0.51562 0.375 1.0156 0.57812 1.5312 0.078125 0.20312 0.15625 0.40625 0.25 0.59375 0.3125 0.6875 0.64062 1.3594 1.0156 2 0.03125 0.0625 0.078125 0.10938 0.10938 0.17188 0.34375 0.59375 0.71875 1.1719 1.1094 1.7344 0.125 0.1875 0.26562 0.35938 0.40625 0.54688 0.17188 0.23438 0.32812 0.46875 0.5 0.6875-6.4219-0.26562-10.375-2.0312-11.078-3.9219zm29.719 9.7188c-3.8281 0-7.5469-1.0469-10.766-3 0.09375 0 0.1875-0.03125 0.28125-0.046875 1.125-0.125 2.2656-0.29688 3.4062-0.5l0.75-0.14062c1.0312-0.1875 2.0781-0.40625 3.1094-0.65625 0.1875-0.046875 0.375-0.078125 0.5625-0.125 1.1562-0.28125 2.3281-0.60938 3.4844-0.95312 0.26562-0.078125 0.54688-0.17188 0.8125-0.25 1.1875-0.375 2.375-0.76562 3.5469-1.2031s2.3281-0.92188 3.4688-1.4062l0.75-0.32812c1.1094-0.5 2.2188-1.0156 3.2969-1.5781 0.15625-0.078125 0.29688-0.15625 0.45312-0.23438 0.96875-0.51562 1.9219-1.0312 2.8594-1.5781 0.20312-0.125 0.40625-0.23438 0.60938-0.35938 1-0.60938 1.9844-1.2344 2.9375-1.875 0.078125-0.046875 0.15625-0.09375 0.23438-0.15625-2.7188 8.4375-10.641 14.406-19.797 14.406zm23.922-21.672c0-0.42188-0.0625-0.84375-0.09375-1.25 0-0.17188-0.015625-0.34375-0.046875-0.51562-0.078125-0.75-0.20312-1.5-0.35938-2.2344-0.03125-0.17188-0.078125-0.34375-0.125-0.51562-0.125-0.5625-0.28125-1.125-0.45312-1.6875-0.078125-0.23438-0.15625-0.46875-0.23438-0.6875-0.17188-0.51562-0.375-1.0312-0.57812-1.5312-0.078125-0.20312-0.15625-0.40625-0.25-0.59375-0.3125-0.6875-0.64062-1.3594-1.0156-2-0.03125-0.0625-0.078125-0.10938-0.10938-0.17188-0.34375-0.59375-0.71875-1.1719-1.125-1.7344-0.125-0.1875-0.26562-0.375-0.40625-0.54688-0.17188-0.23438-0.32812-0.46875-0.51562-0.6875 6.6875 0.26562 10.406 2.1094 11.094 3.9375s-0.92188 5.6562-5.7969 10.234z"/>
 <path d="m53.641 37.844s5.1875 1.5781 7.5 6.1562c0.28125 0.54688 0.82812 0.85938 1.3906 0.85938 0.23438 0 0.48438-0.046875 0.70312-0.17188 0.76562-0.39062 1.0781-1.3281 0.6875-2.0938-2.9531-5.8125-9.1562-7.6719-9.4062-7.75-0.82812-0.25-1.6875 0.23438-1.9375 1.0625s0.23438 1.6875 1.0625 1.9375z"/>
 <path d="m16.672 25.984c-0.67188 0-1.2812 0.4375-1.4844 1.0781s0.015625 1.3438 0.5625 1.75l3.3281 2.4219-1.2656 3.9219c-0.20312 0.64062 0.015625 1.3438 0.5625 1.75 0.28125 0.20312 0.59375 0.29688 0.92188 0.29688s0.64062-0.09375 0.92188-0.29688l3.3281-2.4219 3.3281 2.4219c0.54688 0.40625 1.2969 0.40625 1.8438 0 0.54688-0.39062 0.78125-1.1094 0.5625-1.75l-1.2656-3.9219 3.3281-2.4219c0.54688-0.39062 0.78125-1.1094 0.5625-1.75-0.20312-0.64062-0.8125-1.0781-1.4844-1.0781h-4.1094l-1.2656-3.9219c-0.20312-0.64062-0.8125-1.0781-1.4844-1.0781s-1.2812 0.4375-1.4844 1.0781l-1.2656 3.9219zm5.25 3.125c0.67188 0 1.2812-0.4375 1.4844-1.0781l0.14062-0.42188 0.14062 0.42188c0.20312 0.64062 0.8125 1.0781 1.4844 1.0781h0.4375l-0.35938 0.26562c-0.54688 0.39062-0.78125 1.1094-0.5625 1.75l0.14062 0.42188-0.35938-0.26562c-0.28125-0.20312-0.59375-0.29688-0.92188-0.29688s-0.64062 0.09375-0.92188 0.29688l-0.35938 0.26562 0.14062-0.42188c0.20312-0.64062-0.015625-1.3438-0.5625-1.75l-0.35938-0.26562z"/>
 <path d="m84.891 61.375c0-2.5781-2.1094-4.6875-4.6875-4.6875s-4.6875 2.1094-4.6875 4.6875 2.1094 4.6875 4.6875 4.6875 4.6875-2.1094 4.6875-4.6875zm-6.25 0c0-0.85938 0.70312-1.5625 1.5625-1.5625s1.5625 0.70312 1.5625 1.5625-0.70312 1.5625-1.5625 1.5625-1.5625-0.70312-1.5625-1.5625z"/>
 <path d="m31.984 79.578c0-2.25-1.8281-4.0625-4.0625-4.0625s-4.0625 1.8281-4.0625 4.0625 1.8281 4.0625 4.0625 4.0625 4.0625-1.8281 4.0625-4.0625zm-5.0156 0c0-0.51562 0.42188-0.9375 0.9375-0.9375s0.9375 0.42188 0.9375 0.9375-0.42188 0.9375-0.9375 0.9375-0.9375-0.42188-0.9375-0.9375z"/>
 <path d="m66.438 19.391c0-3.9062-3.1875-7.0938-7.0938-7.0938s-7.0938 3.1875-7.0938 7.0938 3.1875 7.0938 7.0938 7.0938 7.0938-3.1875 7.0938-7.0938zm-11.062 0c0-2.1875 1.7812-3.9688 3.9688-3.9688s3.9688 1.7812 3.9688 3.9688-1.7812 3.9688-3.9688 3.9688-3.9688-1.7812-3.9688-3.9688z"/>
 <path d="m77.734 77.562c-0.20312-0.64062-0.8125-1.0781-1.4844-1.0781h-4.1094l-1.2656-3.9062c-0.20312-0.64062-0.8125-1.0781-1.4844-1.0781s-1.2812 0.4375-1.4844 1.0781l-1.2656 3.9062h-4.1094c-0.67188 0-1.2812 0.4375-1.4844 1.0781s0.015625 1.3438 0.5625 1.75l3.3281 2.4219-1.2656 3.9219c-0.20312 0.64062 0.015625 1.3438 0.5625 1.75 0.28125 0.20312 0.59375 0.29688 0.92188 0.29688s0.64062-0.09375 0.92188-0.29688l3.3281-2.4219 3.3281 2.4219c0.54688 0.40625 1.2969 0.40625 1.8438 0 0.54688-0.39062 0.78125-1.1094 0.5625-1.75l-1.2656-3.9219 3.3281-2.4219c0.54688-0.39062 0.78125-1.1094 0.5625-1.75zm-6.6562 2.3125c-0.54688 0.39062-0.78125 1.1094-0.5625 1.75l0.14062 0.42188-0.35938-0.26562c-0.28125-0.20312-0.59375-0.29688-0.92188-0.29688s-0.64062 0.09375-0.92188 0.29688l-0.35938 0.26562 0.14062-0.42188c0.20312-0.64062-0.015625-1.3438-0.5625-1.75l-0.35938-0.26562h0.4375c0.67188 0 1.2812-0.4375 1.4844-1.0781l0.14062-0.42188 0.14062 0.42188c0.20312 0.64062 0.8125 1.0781 1.4844 1.0781h0.4375z"/>
<text x="0.0" y="117.5" font-size="5.0" font-weight="bold" font-family="Arbeit Regular, Helvetica, Arial-Unicode, Arial, Sans-serif" fill="#000000">Created by Alum Design</text><text x="0.0" y="122.5" font-size="5.0" font-weight="bold" font-family="Arbeit Regular, Helvetica, Arial-Unicode, Arial, Sans-serif" fill="#000000">from Noun Project</text></svg>