<svg xmlns="http://www.w3.org/2000/svg" version="1.1" viewBox="-5.0 -10.0 110.0 135.0">
 <path d="m62.801 23.059c-8.5547-4.0547-18.898-3.9805-27.715 1.1055-8.8164 5.0898-14.051 14.008-14.816 23.449-7.0625 6.2227-12.055 12.445-14.258 17.688-1.6836 4.0117-1.7578 7.5273-0.20703 10.211 2.1758 3.7695 7.5195 5.5586 14.945 5.0391 4.7266-0.33594 10.336-1.5586 16.441-3.6172 8.5586 4.0586 18.906 3.9883 27.723-1.1016 8.8164-5.0898 14.055-14.016 14.82-23.457 4.8281-4.2578 8.6953-8.5039 11.348-12.43 4.168-6.1758 5.2891-11.695 3.1133-15.465-1.5508-2.6836-4.6328-4.3789-8.9453-4.9297-5.6406-0.71484-13.523 0.5-22.445 3.5039zm-25.879 50.68c6.6406-2.2969 13.859-5.5977 21.133-9.793 13.941-8.0508 24.93-17.59 30.438-25.746 1.7422-2.582 2.9297-5.0078 3.4336-7.1914 0.4375-1.8984 0.35547-3.5898-0.4375-4.9609-1.1289-1.9609-3.4883-2.9922-6.6328-3.3906-4.7148-0.59766-11.09 0.30078-18.344 2.4961 1.6055 1.0625 3.1172 2.2891 4.5078 3.668 3.0312-0.44141 5.5625-0.37891 7.4102 0.16797 1.6641 0.49219 2.8438 1.3711 3.5273 2.5586 1.0938 1.8984 0.83203 4.6055-0.98047 7.7539-3.4766 6.0391-12.77 14.23-24.891 21.23-12.121 6.9961-23.863 10.945-30.832 10.941-3.6328-0.003906-6.1094-1.1328-7.2031-3.0234-0.6875-1.1914-0.85938-2.6523-0.45312-4.3359 0.44922-1.875 1.6602-4.0977 3.5547-6.5-0.5-1.8945-0.80469-3.8164-0.92578-5.7383-5.5273 5.1797-9.4922 10.254-11.332 14.637-1.2266 2.9258-1.5117 5.4844-0.38281 7.4414 0.78906 1.375 2.2109 2.2891 4.0781 2.8594 2.1445 0.65234 4.8359 0.83984 7.9453 0.62109 4.6328-0.32422 10.145-1.5547 16.137-3.6094 0.082031-0.035157 0.16406-0.0625 0.25-0.085938zm39.227-18.344c-4.8203 3.8828-10.398 7.7109-16.535 11.258-6.1367 3.543-12.242 6.457-18.02 8.6914 6.9844 2.3125 14.887 1.75 21.758-2.2148 6.8672-3.9648 11.305-10.527 12.797-17.73zm-53.785 5.8438c-0.66406 1-1.1719 1.9414-1.4922 2.8203-0.41406 1.1211-0.55078 2.082-0.11719 2.8281 0.39062 0.67578 1.1797 1.0312 2.207 1.25 0.98047 0.21094 2.1523 0.25781 3.4883 0.17578-0.82422-1.0664-1.5859-2.1953-2.2812-3.3984-0.69141-1.1992-1.2891-2.4297-1.8008-3.6758zm39.441-35.195c-7.7266-3.7969-17.148-3.8008-25.16 0.82422-8.0078 4.625-12.719 12.785-13.293 21.375 0.007813 0.13281 0 0.26562-0.023437 0.39844-0.25781 4.9766 0.86719 10.078 3.5391 14.711 0.94141 1.625 2.0234 3.1172 3.2266 4.4648 6.5898-1.2773 15.383-4.7734 24.418-9.9922 9.0352-5.2188 16.461-11.086 20.863-16.152-0.56641-1.7148-1.3164-3.3984-2.2539-5.0273-2.6758-4.6328-6.5273-8.1602-10.969-10.422-0.125-0.042968-0.24219-0.10156-0.35156-0.17969zm-21.625 6.9453c9.3867-5.4219 21.406-2.1992 26.824 7.1875 0.42969 0.74609 1.3867 1.0039 2.1328 0.57031 0.74609-0.42969 1.0039-1.3867 0.57031-2.1328-6.2812-10.883-20.211-14.617-31.094-8.332-0.74609 0.42969-1.0039 1.3867-0.57031 2.1328 0.42969 0.74609 1.3867 1.0039 2.1328 0.57031zm37.453 5.7656c0.74219-1.1133 1.2852-2.1523 1.5938-3.1094 0.32422-0.99609 0.41016-1.8594 0.019532-2.5391-0.42969-0.74219-1.332-1.1055-2.5078-1.3086-0.91797-0.16016-1.9883-0.19531-3.1836-0.11719 0.82422 1.0664 1.5859 2.1953 2.2812 3.3984 0.69141 1.1992 1.2891 2.4297 1.8008 3.6758z" fill-rule="evenodd"/>
<text x="0.0" y="117.5" font-size="5.0" font-weight="bold" font-family="Arbeit Regular, Helvetica, Arial-Unicode, Arial, Sans-serif" fill="#000000">Created by Asiah</text><text x="0.0" y="122.5" font-size="5.0" font-weight="bold" font-family="Arbeit Regular, Helvetica, Arial-Unicode, Arial, Sans-serif" fill="#000000">from Noun Project</text></svg>